<svg height="512" viewBox="0 0 58 58" width="512" xmlns="http://www.w3.org/2000/svg"><g id="Page-1" fill="none" fill-rule="evenodd"><g id="019---Contact-Book" fill-rule="nonzero"><path id="Shape" d="m57.6 43.5c.2615035.4567092.399374.9737235.4 1.5v4c0 1.6568542-1.3431458 3-3 3h-6v-8.833z" fill="#c03a2b"/><path id="Shape" d="m57.6 36.5c.2615035.4567092.399374.9737235.4 1.5v4c0 1.6568542-1.3431458 3-3 3h-6v-9.278z" fill="#e64c3c"/><path id="Shape" d="m57.6 29.5c.2615035.4567092.399374.9737235.4 1.5v4c0 1.6568542-1.3431458 3-3 3h-6v-9.33z" fill="#c03a2b"/><path id="Shape" d="m57.6 22.5c.2615035.4567092.399374.9737235.4 1.5v4c0 1.6568542-1.3431458 3-3 3h-6v-9.611z" fill="#e64c3c"/><path id="Shape" d="m49 24h6c1.6568542 0 3-1.3431458 3-3v-4c-.000626-.5262765-.1384965-1.0432908-.4-1.5h-8.6z" fill="#c03a2b"/><path id="Shape" d="m49 7h6c1.6568542 0 3 1.34314575 3 3v4c0 1.6568542-1.3431458 3-3 3h-6z" fill="#e64c3c"/><rect id="Rectangle-path" fill="#f0c419" height="58" rx="5" width="46" x="4"/><circle id="Oval" cx="31" cy="19" fill="#35495e" r="15"/><path id="Shape" d="m43 41h-24c-.5522847 0-1-.4477153-1-1s.4477153-1 1-1h24c.5522847 0 1 .4477153 1 1s-.4477153 1-1 1z" fill="#3f5c6c"/><path id="Shape" d="m43 45h-24c-.5522847 0-1-.4477153-1-1s.4477153-1 1-1h24c.5522847 0 1 .4477153 1 1s-.4477153 1-1 1z" fill="#3f5c6c"/><path id="Shape" d="m38 49h-14c-.5522847 0-1-.4477153-1-1s.4477153-1 1-1h14c.5522847 0 1 .4477153 1 1s-.4477153 1-1 1z" fill="#3f5c6c"/><path id="Shape" d="m34.02 33.7c-.9938779.2022239-2.0057612.3027421-3.02.3-1.0554644.0027689-2.1081719-.107866-3.14-.33.8617723-1.5215585 1.2841274-3.252522 1.22-5 .6179842.2129458 1.2663802.3243888 1.92.33.6546821-.0032792 1.3040031-.1182631 1.92-.34-.0982508 1.7487538.2820475 3.4912112 1.1 5.04z" fill="#f9c795"/><path id="Shape" d="m38.37 17.49c-1.15-1.68-4.76-1.77-6.65.07s-5.5 1.77-7.72-.48c-2.01-2.13-1.33-6.08-1.33-6.08 1.99 3.98 10.26-.17 13.58 1.82 1.5104411 1.0494027 2.3242907 2.8421752 2.12 4.67z" fill="#cb8252"/><path id="Shape" d="m40 21.99c.0021373.525781-.2057828 1.0306445-.5775691 1.4024309-.3717864.3717863-.8766499.5797064-1.4024309.5775691-.1274127.0053427-.2550041-.0047303-.38-.03-.7801949 2.2051504-2.5148496 3.9398051-4.72 4.72-.6159969.2217369-1.2653179.3367208-1.92.34-.6536198-.0056112-1.3020158-.1170542-1.92-.33-2.1994413-.7781501-3.9325175-2.5038828-4.72-4.7-.1222784.0203214-.2460451.0303565-.37.03-1.0962852 0-1.985-.8887148-1.985-1.985s.8887148-1.985 1.985-1.985l.01-2.95c2.22 2.25 5.83 2.31 7.72.48s5.5-1.75 6.65-.07c-.0139892.8478-.131527 1.6907137-.35 2.51.5268659-.0000067 1.032008.209972 1.4036189.5834596.3716108.3734877.579042.8796813.5763811 1.4065404z" fill="#fdd7ad"/><path id="Shape" d="m12 0v58h-3c-2.76142375 0-5-2.2385763-5-5v-48c0-2.76142375 2.23857625-5 5-5z" fill="#e64c3c"/><g fill="#95a5a5"><rect id="Rectangle-path" height="4" rx="2" width="8" y="45"/><rect id="Rectangle-path" height="4" rx="2" width="8" y="36"/><rect id="Rectangle-path" height="4" rx="2" width="8" y="27"/><rect id="Rectangle-path" height="4" rx="2" width="8" y="18"/><rect id="Rectangle-path" height="4" rx="2" width="8" y="9"/></g></g></g></svg>